<svg viewBox="0 0 450 93" fill="none" xmlns="http://www.w3.org/2000/svg">
<path d="M3.125 0H0V92.6936H3.125V0Z" fill="black"/>
<path d="M6.25 0H4.6875V92.6936H6.25V0Z" fill="black"/>
<path d="M10.9375 0H9.375V92.6936H10.9375V0Z" fill="black"/>
<path d="M18.75 0H17.1875V92.6936H18.75V0Z" fill="black"/>
<path d="M25 0H21.875V92.6936H25V0Z" fill="black"/>
<path d="M32.8125 0H31.25V92.6936H32.8125V0Z" fill="black"/>
<path d="M35.9375 0H34.375V92.6936H35.9375V0Z" fill="black"/>
<path d="M45.3125 0H39.0625V92.6936H45.3125V0Z" fill="black"/>
<path d="M48.4375 0H46.875V92.6936H48.4375V0Z" fill="black"/>
<path d="M53.125 0H51.5625V92.6936H53.125V0Z" fill="black"/>
<path d="M62.5 0H56.25V92.6936H62.5V0Z" fill="black"/>
<path d="M65.625 0H64.0625V92.6936H65.625V0Z" fill="black"/>
<path d="M70.3125 0H68.75V92.6936H70.3125V0Z" fill="black"/>
<path d="M73.4375 0H71.875V92.6936H73.4375V0Z" fill="black"/>
<path d="M82.8125 0H76.5625V92.6936H82.8125V0Z" fill="black"/>
<path d="M87.5 0H85.9375V92.6936H87.5V0Z" fill="black"/>
<path d="M95.3125 0H89.0625V92.6936H95.3125V0Z" fill="black"/>
<path d="M100 0H98.4375V92.6936H100V0Z" fill="black"/>
<path d="M107.812 0H103.125V92.6936H107.812V0Z" fill="black"/>
<path d="M112.5 0H110.938V92.6936H112.5V0Z" fill="black"/>
<path d="M118.75 0H115.625V92.6936H118.75V0Z" fill="black"/>
<path d="M121.875 0H120.312V92.6936H121.875V0Z" fill="black"/>
<path d="M128.125 0H123.438V92.6936H128.125V0Z" fill="black"/>
<path d="M134.375 0H131.25V92.6936H134.375V0Z" fill="black"/>
<path d="M139.062 0H137.5V92.6936H139.062V0Z" fill="black"/>
<path d="M145.312 0H140.625V92.6936H145.312V0Z" fill="black"/>
<path d="M151.562 0H148.438V92.6936H151.562V0Z" fill="black"/>
<path d="M160.938 0H154.688V92.6936H160.938V0Z" fill="black"/>
<path d="M165.625 0H164.062V92.6936H165.625V0Z" fill="black"/>
<path d="M170.312 0H168.75V92.6936H170.312V0Z" fill="black"/>
<path d="M173.438 0H171.875V92.6936H173.438V0Z" fill="black"/>
<path d="M179.688 0H176.562V92.6936H179.688V0Z" fill="black"/>
<path d="M187.5 0H182.812V92.6936H187.5V0Z" fill="black"/>
<path d="M190.625 0H189.062V92.6936H190.625V0Z" fill="black"/>
<path d="M198.438 0H196.875V92.6936H198.438V0Z" fill="black"/>
<path d="M203.125 0H200V92.6936H203.125V0Z" fill="black"/>
<path d="M207.812 0H206.25V92.6936H207.812V0Z" fill="black"/>
<path d="M218.75 0H212.5V92.6936H218.75V0Z" fill="black"/>
<path d="M221.875 0H220.312V92.6936H221.875V0Z" fill="black"/>
<path d="M229.688 0H223.438V92.6936H229.688V0Z" fill="black"/>
<path d="M235.937 0H231.25V92.6936H235.937V0Z" fill="black"/>
<path d="M239.062 0H237.5V92.6936H239.062V0Z" fill="black"/>
<path d="M242.188 0H240.625V92.6936H242.188V0Z" fill="black"/>
<path d="M248.438 0H243.75V92.6936H248.438V0Z" fill="black"/>
<path d="M254.688 0H251.562V92.6936H254.688V0Z" fill="black"/>
<path d="M259.375 0H257.812V92.6936H259.375V0Z" fill="black"/>
<path d="M264.062 0H262.5V92.6936H264.062V0Z" fill="black"/>
<path d="M273.438 0H270.312V92.6936H273.438V0Z" fill="black"/>
<path d="M276.562 0H275V92.6936H276.562V0Z" fill="black"/>
<path d="M281.25 0H278.125V92.6936H281.25V0Z" fill="black"/>
<path d="M285.938 0H284.375V92.6936H285.938V0Z" fill="black"/>
<path d="M295.312 0H292.188V92.6936H295.312V0Z" fill="black"/>
<path d="M303.125 0H301.562V92.6936H303.125V0Z" fill="black"/>
<path d="M306.25 0H304.688V92.6936H306.25V0Z" fill="black"/>
<path d="M310.938 0H309.375V92.6936H310.938V0Z" fill="black"/>
<path d="M321.875 0H315.625V92.6936H321.875V0Z" fill="black"/>
<path d="M325 0H323.438V92.6936H325V0Z" fill="black"/>
<path d="M328.125 0H326.562V92.6936H328.125V0Z" fill="black"/>
<path d="M337.5 0H334.375V92.6936H337.5V0Z" fill="black"/>
<path d="M340.625 0H339.062V92.6936H340.625V0Z" fill="black"/>
<path d="M345.312 0H343.75V92.6936H345.312V0Z" fill="black"/>
<path d="M354.688 0H348.438V92.6936H354.688V0Z" fill="black"/>
<path d="M357.812 0H356.25V92.6936H357.812V0Z" fill="black"/>
<path d="M362.5 0H360.938V92.6936H362.5V0Z" fill="black"/>
<path d="M370.312 0H368.75V92.6936H370.312V0Z" fill="black"/>
<path d="M376.562 0H373.438V92.6936H376.562V0Z" fill="black"/>
<path d="M379.687 0H378.125V92.6936H379.687V0Z" fill="black"/>
<path d="M384.375 0H381.25V92.6936H384.375V0Z" fill="black"/>
<path d="M389.062 0H387.5V92.6936H389.062V0Z" fill="black"/>
<path d="M396.875 0H395.313V92.6936H396.875V0Z" fill="black"/>
<path d="M404.688 0H403.125V92.6936H404.688V0Z" fill="black"/>
<path d="M410.938 0H407.812V92.6936H410.938V0Z" fill="black"/>
<path d="M414.062 0H412.5V92.6936H414.062V0Z" fill="black"/>
<path d="M421.875 0H418.75V92.6936H421.875V0Z" fill="black"/>
<path d="M425 0H423.438V92.6936H425V0Z" fill="black"/>
<path d="M432.812 0H429.688V92.6936H432.812V0Z" fill="black"/>
<path d="M442.188 0H437.5V92.6936H442.188V0Z" fill="black"/>
<path d="M445.312 0H443.75V92.6936H445.312V0Z" fill="black"/>
<path d="M450 0H446.875V92.6936H450V0Z" fill="black"/>
</svg>
