<svg 
  id="Layer_1"
  xmlns="http://www.w3.org/2000/svg"
  viewBox="0 0 238.32 59.98"
>
  <defs>
    <style>
      .cls-1{letter-spacing:-.08em;}
      .cls-2,.cls-3{letter-spacing:-.03em;}
      .cls-3,.cls-4{font-family:GigaSans-SemiBold, 'Giga Sans';font-size:35px;font-weight:600;}
      .cls-3,.cls-4,.cls-5{fill:#fff;}
      .cls-6{fill:#f2e9ef;}
      .cls-6,.cls-7,.cls-8,.cls-9,.cls-10,.cls-11,.cls-12,.cls-5,.cls-13{stroke-width:0px;}
      .cls-7{fill:#9b6a91;}
      .cls-8{fill:#d4bfd1;}
      .cls-9{fill:#a97da0;}
      .cls-10{fill:#8d5382;}
      .cls-11{fill:#b794b1;}
      .cls-12{fill:#7f3e72;}
      .cls-13{fill:#e5d4e0;}
    </style>
  </defs>
  <text class="cls-3" transform="translate(66.5 38.22)"><tspan x="0" y="0">b</tspan></text>
  <path class="cls-5" d="M94.88,20.72l5.07,10.37,4.21-10.37h6.13l-19.47,39.26,7.51-21.79-9.28-17.47h5.82Z"/>
  <text class="cls-4" transform="translate(110.29 38.22)"><tspan class="cls-1" x="0" y="0">z</tspan><tspan class="cls-2" x="17.08" y="0">antine</tspan></text>
  <polygon class="cls-6" points="26.13 14.81 37.87 0 29.1 21.45 26.13 14.81"/>
  <polygon class="cls-9" points="36.85 14.38 37.87 0 29.1 21.45 36.85 14.38"/>
  <polygon class="cls-8" points="40.93 21.02 36.85 14.38 29.1 21.45 40.93 21.02"/>
  <polygon class="cls-7" points="36.42 24.42 29.1 21.45 40.93 21.02 36.42 24.42"/>
  <polygon class="cls-7" points="36.96 12.85 43.83 17.19 48.17 24.42 40.93 21.02 36.85 14.38 36.96 12.85"/>
  <polygon class="cls-12" points="44 12.85 42.83 16.56 36.96 12.85 44 12.85"/>
  <polygon class="cls-11" points="37.24 8.94 39.61 10.32 44 12.85 36.96 12.85 37.24 8.94"/>
  <polygon class="cls-6" points="43.15 3.23 37.24 8.94 39.61 10.32 43.15 3.23"/>
  <polygon class="cls-9" points="41.66 11.5 43.15 3.23 39.61 10.32 41.66 11.5"/>
  <polygon class="cls-8" points="43.83 17.19 44 12.85 42.83 16.56 43.83 17.19"/>
  <polygon class="cls-10" points="48.17 24.42 44 25.53 40.93 21.02 48.17 24.42"/>
  <polygon class="cls-7" points="58.63 36.85 44 25.53 48.17 24.42 58.63 36.85"/>
  <polygon class="cls-12" points="36.42 24.42 38.47 25.96 44 25.53 40.93 21.02 36.42 24.42"/>
  <polygon class="cls-8" points="58.63 36.85 48.59 39.49 38.47 25.96 44 25.53 58.63 36.85"/>
  <polygon class="cls-8" points="47.4 43.32 48.59 39.49 54.46 41.4 47.4 43.32"/>
  <polygon class="cls-13" points="58.63 36.85 54.46 41.4 48.59 39.49 58.63 36.85"/>
  <polygon class="cls-10" points="57.02 45.78 60.42 42.3 58.63 36.85 54.46 41.4 57.02 45.78"/>
  <polygon class="cls-12" points="47.4 43.32 49.35 42.79 52.59 46.98 52.59 48.59 47.4 43.32"/>
  <polygon class="cls-12" points="60.42 42.3 57.95 48.17 57.02 45.78 60.42 42.3"/>
  <polygon class="cls-7" points="49.35 42.79 54.46 41.4 57.02 45.78 52.59 46.98 49.35 42.79"/>
  <polygon class="cls-10" points="57.95 48.17 57.02 45.78 52.59 46.98 52.59 48.59 57.95 48.17"/>
  <polygon class="cls-7" points="36.42 24.42 30.52 29.1 47.4 43.32 48.59 39.49 38.47 25.96 36.42 24.42"/>
  <polygon class="cls-13" points="29.1 21.45 29.1 28.85 30.52 29.1 36.42 24.42 29.1 21.45"/>
  <polygon class="cls-10" points="47.4 43.32 31.15 38.21 30.52 29.1 47.4 43.32"/>
  <polygon class="cls-8" points="29.1 28.85 31.15 38.21 30.52 29.1 29.1 28.85"/>
  <polygon class="cls-8" points="26.13 14.81 25.36 20.59 29.1 21.45 26.13 14.81"/>
  <polygon class="cls-13" points="27.94 12.52 14.29 13.19 17.4 10.5 27.94 12.52"/>
  <polygon class="cls-12" points="29.1 28.85 31.15 38.21 32.42 52.85 27.66 56.25 29.1 28.85"/>
  <polygon class="cls-10" points="29.1 21.45 18.89 57.19 27.66 56.25 29.1 28.85 29.1 21.45"/>
  <polygon class="cls-11" points="29.1 21.45 13.11 51.49 18.89 57.19 29.1 21.45"/>
  <polygon class="cls-10" points="25.36 20.59 8.17 51.15 13.11 51.49 29.1 21.45 25.36 20.59"/>
  <polygon class="cls-13" points="25.36 20.59 4.94 46.55 8.17 51.15 25.36 20.59"/>
  <polygon class="cls-10" points="0 43.32 4.94 46.55 25.36 20.59 25.52 19.41 0 43.32"/>
  <polygon class="cls-13" points="3.15 34.55 0 43.32 25.52 19.41 25.72 17.91 3.15 34.55"/>
  <polygon class="cls-10" points="25.84 16.95 1.29 31.44 3.15 34.55 25.72 17.91 25.84 16.95"/>
  <polygon class="cls-13" points="26.02 15.61 4.09 25.96 3.27 30.28 25.84 16.95 26.02 15.61"/>
  <polygon class="cls-13" points="1.29 31.44 4.09 25.96 3.27 30.28 1.29 31.44"/>
  <polygon class="cls-10" points="26.13 14.81 6.55 21.2 6.73 24.71 26.02 15.61 26.13 14.81"/>
  <polygon class="cls-13" points="26.57 14.25 9.07 17.18 6.55 21.2 26.13 14.81 26.57 14.25"/>
  <polygon class="cls-7" points="27.94 12.52 14.29 13.19 12.86 16.54 26.57 14.25 27.94 12.52"/>
</svg>