<svg viewBox="0 0 16 17" fill="none" xmlns="http://www.w3.org/2000/svg">
    <path
        d="M4 7.83325C4 5.94792 4 5.00459 4.586 4.41925C5.17133 3.83325 6.11467 3.83325 8 3.83325H10C11.8853 3.83325 12.8287 3.83325 13.414 4.41925C14 5.00459 14 5.94792 14 7.83325V11.1666C14 13.0519 14 13.9953 13.414 14.5806C12.8287 15.1666 11.8853 15.1666 10 15.1666H8C6.11467 15.1666 5.17133 15.1666 4.586 14.5806C4 13.9953 4 13.0519 4 11.1666V7.83325Z"
        stroke="white" />
    <path
        d="M4 13.1666C3.46957 13.1666 2.96086 12.9559 2.58579 12.5808C2.21071 12.2057 2 11.697 2 11.1666V7.16658C2 4.65259 2 3.39525 2.78133 2.61459C3.562 1.83325 4.81933 1.83325 7.33333 1.83325H10C10.5304 1.83325 11.0391 2.04397 11.4142 2.41904C11.7893 2.79411 12 3.30282 12 3.83325"
        stroke="white" />
</svg>