<svg viewBox="0 0 170 170" fill="white" xmlns="http://www.w3.org/2000/svg">
<path d="M165.49 148.51C167.744 150.764 169.01 153.822 169.01 157.01C169.01 160.198 167.744 163.255 165.49 165.51C163.235 167.764 160.178 169.031 156.99 169.031C153.801 169.031 150.744 167.764 148.49 165.51L84.9996 102L21.4896 165.49C19.2352 167.744 16.1777 169.011 12.9896 169.011C9.80145 169.011 6.74391 167.744 4.48957 165.49C2.23523 163.235 0.96875 160.178 0.96875 156.99C0.96875 153.802 2.23523 150.744 4.48957 148.49L67.9996 84.9998L4.50956 21.4898C2.25522 19.2355 0.98875 16.1779 0.98875 12.9898C0.98875 9.80168 2.25522 6.74414 4.50956 4.4898C6.7639 2.23546 9.82144 0.968983 13.0096 0.968983C16.1977 0.968983 19.2552 2.23546 21.5096 4.4898L84.9996 67.9998L148.51 4.4798C150.764 2.22546 153.821 0.958984 157.01 0.958984C160.198 0.958984 163.255 2.22546 165.51 4.4798C167.764 6.73414 169.03 9.79168 169.03 12.9798C169.03 16.1679 167.764 19.2255 165.51 21.4798L102 84.9998L165.49 148.51Z"/>
</svg>
