<svg  viewBox="0 0 14 14" fill="#0B092B" xmlns="http://www.w3.org/2000/svg">
<path d="M3.5 1.75C3.03587 1.75 2.59075 1.93437 2.26256 2.26256C1.93437 2.59075 1.75 3.03587 1.75 3.5V10.5C1.75 10.9641 1.93437 11.4092 2.26256 11.7374C2.59075 12.0656 3.03587 12.25 3.5 12.25H10.5C10.9641 12.25 11.4092 12.0656 11.7374 11.7374C12.0656 11.4092 12.25 10.9641 12.25 10.5V8.75C12.25 8.51794 12.3422 8.29538 12.5063 8.13128C12.6704 7.96719 12.8929 7.875 13.125 7.875C13.3571 7.875 13.5796 7.96719 13.7437 8.13128C13.9078 8.29538 14 8.51794 14 8.75V10.5C14 11.4283 13.6313 12.3185 12.9749 12.9749C12.3185 13.6313 11.4283 14 10.5 14H3.5C2.57174 14 1.6815 13.6313 1.02513 12.9749C0.368749 12.3185 0 11.4283 0 10.5V3.5C0 2.57174 0.368749 1.6815 1.02513 1.02513C1.6815 0.368749 2.57174 0 3.5 0H5.25C5.48206 0 5.70462 0.0921874 5.86872 0.256282C6.03281 0.420376 6.125 0.642936 6.125 0.875C6.125 1.10706 6.03281 1.32962 5.86872 1.49372C5.70462 1.65781 5.48206 1.75 5.25 1.75H3.5ZM8.75 1.75C8.51794 1.75 8.29538 1.65781 8.13128 1.49372C7.96719 1.32962 7.875 1.10706 7.875 0.875C7.875 0.642936 7.96719 0.420376 8.13128 0.256282C8.29538 0.0921874 8.51794 0 8.75 0H13.125C13.3571 0 13.5796 0.0921874 13.7437 0.256282C13.9078 0.420376 14 0.642936 14 0.875V5.25C14 5.48206 13.9078 5.70462 13.7437 5.86872C13.5796 6.03281 13.3571 6.125 13.125 6.125C12.8929 6.125 12.6704 6.03281 12.5063 5.86872C12.3422 5.70462 12.25 5.48206 12.25 5.25V2.98725L9.3695 5.8695C9.28815 5.95085 9.19157 6.01539 9.08527 6.05942C8.97898 6.10344 8.86505 6.12611 8.75 6.12611C8.63495 6.12611 8.52102 6.10344 8.41473 6.05942C8.30843 6.01539 8.21185 5.95085 8.1305 5.8695C8.04915 5.78815 7.98461 5.69157 7.94058 5.58527C7.89656 5.47898 7.87389 5.36505 7.87389 5.25C7.87389 5.13495 7.89656 5.02102 7.94058 4.91473C7.98461 4.80843 8.04915 4.71185 8.1305 4.6305L11.0128 1.75H8.75Z"/>
</svg>
